<svg width="80" height="80" viewBox="0 0 80 80" fill="none" xmlns="http://www.w3.org/2000/svg">
<path d="M40.4938 39.2945H31.746C32.0047 38.6361 32.428 38.0482 33.0159 37.5309C33.9095 36.7548 34.9206 36.3786 36.1199 36.3786C37.3192 36.3786 38.3304 36.7548 39.224 37.5309C39.8119 38.0482 40.2352 38.6361 40.4938 39.2945ZM80 40C80 62.0811 62.1046 80 40 80C17.8954 80 0 62.0811 0 40C0 17.8954 17.8954 0 40 0C62.0811 0 80 17.8954 80 40ZM26.2434 41.0817C26.2434 36.943 23.3275 33.6038 19.1887 33.6038C17.3075 33.6038 15.6614 34.3092 14.4386 35.4615V29.7237H11.5461V48.4421H14.415V41.1052C14.415 41.0582 14.415 41.0112 14.415 40.9641C14.415 38.495 16.4139 36.4962 18.883 36.4962C21.6108 36.4962 23.351 38.495 23.351 40.9641C23.351 41.0112 23.351 41.0582 23.351 41.1052V48.4421H26.2199V41.0817H26.2434ZM43.6214 41.0817C43.6214 40.776 43.5979 40.4468 43.5744 40.1411C43.3392 38.2834 42.5162 36.7313 41.1287 35.485C39.7178 34.2387 38.0482 33.5802 36.167 33.5802C34.2857 33.5802 32.6161 34.2152 31.2052 35.485C29.8178 36.7313 28.9947 38.2834 28.7596 40.1411C28.7125 40.4468 28.7125 40.776 28.7125 41.0817C28.7125 43.1276 29.4415 44.9148 30.8995 46.3727C32.3574 47.8307 34.1446 48.5597 36.1905 48.5597C37.9071 48.5597 39.4356 48.0188 40.776 46.9841C41.7166 46.2551 42.4221 45.3615 42.9159 44.3504L40.1646 43.5979C39.8824 44.0447 39.5062 44.4444 39.0594 44.7972C38.1893 45.4556 37.2487 45.7848 36.167 45.7848C34.8501 45.7848 33.7684 45.338 32.8277 44.3974C32.1458 43.7155 31.7225 42.9394 31.5344 42.0459H37.4133H40.7525H43.5273H43.5979V41.0817H43.6214ZM53.0511 45.6908C50.8407 45.6908 49.03 43.8801 49.03 41.6696V29.7237H46.1611V41.6696C46.1611 45.4791 49.2651 48.5832 53.0747 48.5832V45.6908H53.0511ZM68.4303 33.7449H65.5614V41.505C65.5614 41.552 65.5614 41.5991 65.5614 41.6461C65.5614 43.8566 63.7507 45.6673 61.5403 45.6673C59.3298 45.6673 57.5191 43.8566 57.5191 41.6461C57.5191 41.5991 57.5191 41.552 57.5191 41.505V33.7449H54.6502V41.505C54.6502 41.552 54.6502 41.5991 54.6502 41.6461C54.6502 45.4556 57.7543 48.5597 61.5638 48.5597C65.3733 48.5597 68.4774 45.4556 68.4774 41.6461C68.4774 41.5991 68.4774 41.552 68.4774 41.505V33.7449H68.4303Z" fill="white"/>
</svg>
